<svg version="1.1" xmlns="http://www.w3.org/2000/svg" width="24" height="24" viewBox="0 0 45 45"><defs><style>.youtube-icon-circle-1{fill:red;}.youtube-icon-circle-2{fill:#fff;}</style></defs><title>YouTube</title><circle class="youtube-icon-circle-1" cx="22.5" cy="22.5" r="22.5"></circle><path id="lozenge-path-YouTubeCircleIcon-youtube-circle-icon" class="youtube-icon-circle-2" d="M37.12,16a3.71,3.71,0,0,0-2.61-2.61C32.2,12.73,23,12.73,23,12.73s-9.24,0-11.55.62A3.71,3.71,0,0,0,8.79,16a38.56,38.56,0,0,0-.62,7.11,38.56,38.56,0,0,0,.62,7.11,3.71,3.71,0,0,0,2.61,2.61c2.31.62,11.55.62,11.55.62s9.24,0,11.55-.62a3.71,3.71,0,0,0,2.61-2.61,38.56,38.56,0,0,0,.62-7.11A38.56,38.56,0,0,0,37.12,16Z" transform="translate(0 -0.58)"></path><polygon id="play-polygon-YouTubeCircleIcon-youtube-circle-icon" class="youtube-icon-circle-1" points="20 26.93 27.68 22.5 20 18.07 20 26.93"></polygon></svg>