<svg version="1" xmlns="http://www.w3.org/2000/svg" width="682.667" height="682.667" viewBox="0 0 512.000000 512.000000"><path d="M0 77.4v77.4l13.8 20.3c7.6 11.2 21.6 32 31.2 46.2 9.5 14.1 17.7 25.4 18 25 .4-.5 11.1-54.6 23.8-120.3C99.5 60.3 110.2 5 110.6 3.2l.7-3.2H0v77.4zM119 .8c0 .5-3.6 19.2-7.9 41.7l-7.9 40.9 6.1 9c13.2 19.7 59.9 88.2 60.7 89 .5.4 23.6-14.5 51.4-33.3 27.8-18.8 51.1-34.3 51.8-34.6.7-.2 2 .6 2.9 1.8.8 1.2 15 22.1 31.4 46.5 20.6 30.5 30.1 43.8 30.7 43 .6-.9.8-.7.5.7-.3 1.7 4.6 10.5 5.9 10.5 1.3 0 98.5-66.4 99.3-67.8.4-.9 4.5-21.1 9.1-44.7 4.5-23.7 8.5-43.3 8.9-43.7.5-.5 38 6.2 48.4 8.6 1.6.4 1.7-1.7 1.7-34V0H315.5C207.4 0 119 .4 119 .8zm140.7 24.4c-.3.8-.6.5-.6-.6-.1-1.1.2-1.7.5-1.3.3.3.4 1.2.1 1.9zm142 47c-.3.8-.6.5-.6-.6-.1-1.1.2-1.7.5-1.3.3.3.4 1.2.1 1.9zm-220 83c-.3.8-.6.5-.6-.6-.1-1.1.2-1.7.5-1.3.3.3.4 1.2.1 1.9z"/><path d="M467 73.3c-4.3 20.8-46.8 242.2-46.6 242.5.2.1 20.9-13.6 46-30.5l45.6-30.8v-88.7c0-83.6-.1-88.7-1.7-89.2-1-.3-10.3-2.1-20.8-4.1-10.4-2-19.5-3.8-20.2-4-.7-.2-1.6 1.6-2.3 4.8zm40.7 36.9c-.3.8-.6.5-.6-.6-.1-1.1.2-1.7.5-1.3.3.3.4 1.2.1 1.9zM101 95.1c-.1.2-6.8 34.8-14.9 76.9-8.2 42.1-14.8 76.6-14.6 76.8.1.1 21-13.7 46.4-30.9 32.4-21.8 45.9-31.4 45.3-32.2-.5-.7-14.6-21.2-31.2-45.7-32.2-47.4-31-45.5-31-44.9zM171.7 191.3c-60.5 40.9-94.4 64.3-93.5 64.7.7.4 3.1 1.1 5.3 1.4 2.2.4 37.2 7.2 77.9 15.2 40.6 8 74.2 14.2 74.5 13.7.8-.9 31.4-158.4 30.9-158.8-.2-.1-43 28.6-95.1 63.8zM274.2 133.7c-2.3 10.6-62.2 321-62.2 322 0 .7 7.5-3.9 16.8-10.1 9.2-6.2 28.6-19.4 43.2-29.2 14.6-9.9 51.1-34.5 81.2-54.8l54.7-36.9-23.4-34.6c-12.8-19-34.1-50.6-47.3-70.1-13.2-19.5-32.5-48-42.8-63.3-10.3-15.2-18.9-27.7-19-27.7-.1 0-.7 2.1-1.2 4.7zm11.5 14.5c-.3.8-.6.5-.6-.6-.1-1.1.2-1.7.5-1.3.3.3.4 1.2.1 1.9zm-5 92c-.3.8-.6.5-.6-.6-.1-1.1.2-1.7.5-1.3.3.3.4 1.2.1 1.9zM395.1 191.8c-24.9 16.9-45.4 31-45.5 31.4-.1.7 61.7 92.7 62.1 92.4.1-.1 6.8-33.9 14.7-75.2 8-41.2 14.8-75.9 15.1-77.2.3-1.2.2-2.2-.2-2.2-.5.1-21.2 13.9-46.2 30.8z"/><path d="M0 340.8V512h512V388.5c0-67.9-.3-123.5-.6-123.5s-59.4 39.7-131.2 88.2c-71.9 48.5-140.6 94.9-152.6 103-12.1 8.1-22.3 14.8-22.7 14.8-.4 0-14.4-20.1-31-44.8-40.5-59.9-71.7-106.1-97.9-144.7-11.9-17.6-33.5-49.6-48-71C13.6 189 1.4 171.1.9 170.5.4 170 0 243.3 0 340.8zm17.7-124.6c-.3.8-.6.5-.6-.6-.1-1.1.2-1.7.5-1.3.3.3.4 1.2.1 1.9zm15 148c-.3.8-.6.5-.6-.6-.1-1.1.2-1.7.5-1.3.3.3.4 1.2.1 1.9zm423.3 6.3c0 .8-.4 1.5-1 1.5-.5 0-1-.7-1-1.5s.5-1.5 1-1.5c.6 0 1 .7 1 1.5zm-448 16c0 .8-.4 1.5-1 1.5-.5 0-1-.7-1-1.5s.5-1.5 1-1.5c.6 0 1 .7 1 1.5zm352 16c0 .8-.4 1.5-1 1.5-.5 0-1-.7-1-1.5s.5-1.5 1-1.5c.6 0 1 .7 1 1.5zm-36 56c0 .8-.4 1.5-1 1.5-.5 0-1-.7-1-1.5s.5-1.5 1-1.5c.6 0 1 .7 1 1.5zm47.7 46.7c-.3.8-.6.5-.6-.6-.1-1.1.2-1.7.5-1.3.3.3.4 1.2.1 1.9z"/></svg>