<svg version="1" xmlns="http://www.w3.org/2000/svg" width="1333.333" height="1333.333" viewBox="0 0 1000.000000 1000.000000"><path d="M100.6 299.2c.1 28.8.2 52.6.3 53 0 .5 44.1 44.9 97.9 98.9 53.7 53.9 143.5 144 199.4 200.2L500 753.5l110.2-110.7c60.7-60.9 150.7-151.2 200.1-200.8l89.8-90.1-.3-52.5-.3-52.4H695.4l.1 49.2c0 27.1-.2 50.3-.5 51.5-.4 2-94.5 97.3-95.9 97.3-.4 0-22.7-22.1-49.6-49-26.9-27-49.3-48.9-49.8-48.7-.5.1-22.8 22.3-49.7 49.2l-48.8 48.9-48.1-48-48-47.9V302v-51.3l-.1-3.7H100.4l.2 52.2zm197.9 98c0 79.1-.2 143.8-.4 143.8-.3 0-43.4-43.1-95.8-95.8l-95.2-95.7-.1-48v-48.1h191.5v143.8zm594.6-108.7c0 19.2.1 40.8.1 47.9l.1 12.8-28.6 28.7c-15.8 15.7-58.8 59-95.7 96.1l-67 67.4V397.9c0-79 .2-143.8.5-144 .2-.3 43.2-.5 95.5-.5h95l.1 35.1zM395.8 450.2c-.4 1-89.7 90.8-90.3 90.8-.3 0-.5-41-.5-91.1l.1-91.1 45.5 45.3c25 25 45.3 45.7 45.2 46.1zm100.8 2.6v93.8l-92.5-.4c-50.9-.2-92.7-.4-92.8-.5-.1-.2 185-186.7 185.3-186.7v93.8zm180.2 80.5l16.7 16.7-8 7.9c-4.4 4.4-46.8 46.9-94.3 94.5-47.4 47.6-86.6 86.7-87 87-.5.3-.8-85.2-.8-190V359l78.3 78.7c43.1 43.4 85.9 86.3 95.1 95.6zm18.7-82.9c0 79.6-.2 91.3-1.4 90.3-.8-.7-14.9-14.7-31.3-31.2-16.5-16.5-36.4-36.5-44.4-44.5L604 450.4l45.4-45.7c25-25.1 45.6-45.7 45.8-45.7.1 0 .3 41.1.3 91.4z"/></svg>