<?xml version="1.0" standalone="no"?>
<!DOCTYPE svg PUBLIC "-//W3C//DTD SVG 20010904//EN"
 "http://www.w3.org/TR/2001/REC-SVG-20010904/DTD/svg10.dtd">
<svg version="1.0" xmlns="http://www.w3.org/2000/svg"
 width="1025.000000pt" height="1025.000000pt" viewBox="0 0 1025.000000 1025.000000"
 preserveAspectRatio="xMidYMid meet">
<metadata>
Created by potrace 1.14, written by Peter Selinger 2001-2017
</metadata>
<g transform="translate(0.000000,1025.000000) scale(0.100000,-0.100000)"
fill="#000000" stroke="none">
<path d="M160 8429 c-42 -9 -80 -50 -81 -87 0 -15 -1 -321 -1 -680 0 -735 -9
-658 87 -758 74 -77 249 -257 565 -583 140 -145 275 -284 300 -310 25 -26 156
-162 291 -302 136 -140 271 -279 300 -310 30 -31 163 -169 295 -305 133 -137
265 -274 294 -304 29 -30 179 -185 334 -344 349 -359 340 -350 631 -651 132
-137 263 -271 290 -300 43 -44 367 -379 595 -615 41 -42 181 -187 310 -320
129 -134 301 -311 381 -394 81 -83 184 -190 231 -239 83 -86 117 -107 165 -99
19 3 122 106 548 547 33 34 169 174 301 311 133 137 268 276 299 309 32 33
162 168 290 300 128 132 263 272 300 310 37 39 167 173 289 298 121 126 245
254 275 285 30 32 135 140 235 243 193 197 313 321 711 734 138 142 311 322
386 399 75 78 156 162 180 187 37 39 161 167 594 615 54 56 480 496 566 584
52 54 49 11 49 741 0 666 0 677 -20 702 -12 15 -35 30 -53 35 -18 4 -592 8
-1277 7 -980 0 -1250 -3 -1268 -13 -54 -31 -52 -7 -52 -698 l0 -639 -92 -95
c-164 -171 -358 -372 -634 -656 -149 -153 -302 -312 -340 -351 -65 -69 -88
-85 -96 -64 -1 5 -114 123 -249 263 -135 139 -274 282 -309 318 -34 36 -171
177 -303 314 -133 137 -256 264 -273 282 -56 59 -108 58 -170 -5 -41 -41 -501
-513 -619 -636 -38 -40 -173 -178 -298 -308 l-229 -235 -138 142 c-76 77 -177
182 -225 231 -48 50 -221 226 -383 393 -163 167 -317 326 -344 354 l-48 51 0
641 c0 695 2 667 -53 698 -17 10 -298 13 -1262 13 -683 0 -1256 -2 -1275 -6z
m2390 -1946 l-1 -1748 -147 151 c-81 83 -255 263 -387 399 -132 137 -307 318
-390 403 -82 85 -168 174 -190 197 -22 23 -155 160 -296 306 -141 145 -280
289 -309 319 -158 165 -517 536 -533 549 -16 14 -17 56 -17 593 l0 578 1135 0
1135 0 0 -1747z m7418 1179 l2 -567 -96 -100 c-300 -310 -525 -544 -569 -590
-116 -121 -480 -499 -600 -624 -71 -74 -146 -151 -165 -171 -19 -20 -137 -142
-261 -271 -125 -129 -252 -261 -284 -294 -154 -162 -285 -295 -290 -295 -3 0
-5 783 -5 1740 l0 1740 1133 0 1132 0 3 -568z m-6563 -1547 c160 -164 301
-308 315 -321 l24 -23 -24 -27 c-25 -28 -240 -249 -516 -533 -84 -86 -220
-226 -303 -311 l-151 -155 1 1020 0 1020 182 -186 c100 -102 313 -320 472
-484z m1615 -434 l0 -1099 -1057 5 c-582 3 -1059 6 -1060 7 -2 2 65 71 452
471 122 127 251 261 287 298 36 37 126 130 199 206 74 75 249 256 389 401 140
145 330 341 421 434 91 94 210 217 264 274 54 56 100 102 102 102 2 0 3 -494
3 -1099z m2475 67 l2 -1012 -176 181 c-97 99 -313 321 -481 493 -168 172 -313
321 -322 330 -21 20 -50 -11 463 512 196 200 390 397 430 439 41 42 76 75 78
73 2 -2 5 -459 6 -1016z m-1994 740 c145 -149 290 -299 323 -332 32 -34 129
-133 215 -222 185 -191 611 -630 741 -764 50 -52 203 -209 338 -349 279 -286
322 -332 322 -340 0 -7 -79 -90 -410 -431 -130 -135 -263 -272 -295 -305 -31
-33 -166 -172 -299 -309 -132 -137 -263 -273 -291 -301 -27 -29 -153 -159
-280 -290 -126 -130 -259 -267 -294 -304 -118 -123 -331 -340 -339 -345 -4 -2
-8 1023 -7 2280 0 1256 3 2284 6 2284 3 0 125 -122 270 -272z"/>
</g>
</svg>
