<?xml version="1.0" encoding="UTF-8" standalone="no"?>
<!DOCTYPE svg PUBLIC "-//W3C//DTD SVG 1.1//EN" "http://www.w3.org/Graphics/SVG/1.1/DTD/svg11.dtd">
<svg width="100%" height="100%" viewBox="0 0 400 300" version="1.1" xmlns="http://www.w3.org/2000/svg" xmlns:xlink="http://www.w3.org/1999/xlink" xml:space="preserve" xmlns:serif="http://www.serif.com/" style="fill-rule:evenodd;clip-rule:evenodd;stroke-linejoin:round;stroke-miterlimit:2;">
    <rect x="0" y="0" width="400" height="300" style="fill:url(#_Linear1);"/>
    <g transform="matrix(1,0,0,1,-73.8208,35.5106)">
        <path d="M273.821,-62.835L275.29,117.084L296.751,-47.565L278.216,117.318L322.912,-58.912L281.098,117.783L341.731,-40.304L283.911,118.476L370.118,-47.292L286.627,119.388L384.101,-26.063L289.219,120.513L413.622,-28.422L291.663,121.838L422.233,-5.387L293.935,123.351L451.754,-3.028L296.013,125.038L454.662,20.927L297.878,126.881L483.048,27.915L299.511,128.864L480.141,51.87L300.897,130.968L506.302,63.218L302.022,133.172L497.691,86.252L302.875,135.454L520.621,101.523L303.448,137.793L506.638,122.752L303.736,140.167L525.456,141.36L303.736,142.552L506.638,159.967L303.448,144.926L520.621,181.196L302.875,147.265L497.691,196.467L302.022,149.548L506.302,219.502L300.897,151.751L480.141,230.849L299.511,153.855L483.048,254.804L297.878,155.838L454.662,261.792L296.013,157.682L451.754,285.747L293.935,159.368L422.233,288.107L291.663,160.881L413.622,311.142L289.219,162.207L384.101,308.782L286.627,163.331L370.118,330.011L283.911,164.244L341.731,323.024L281.098,164.936L322.912,341.631L278.216,165.401L296.751,330.284L275.29,165.635L273.821,345.555L272.351,165.635L250.89,330.284L269.426,165.401L224.729,341.631L266.543,164.936L205.911,323.024L263.73,164.244L177.524,330.011L261.015,163.331L163.541,308.782L258.423,162.207L134.02,311.142L255.979,160.881L125.409,288.107L253.707,159.368L95.888,285.747L251.628,157.682L92.98,261.792L249.764,155.838L64.594,254.804L248.131,153.855L67.501,230.849L246.745,151.751L41.34,219.502L245.62,149.548L49.951,196.467L244.767,147.265L27.02,181.196L244.193,144.926L41.004,159.967L243.905,142.552L22.185,141.36L243.905,140.167L41.004,122.752L244.193,137.793L27.02,101.523L244.767,135.454L49.951,86.252L245.62,133.172L41.34,63.218L246.745,130.968L67.501,51.87L248.131,128.864L64.594,27.915L249.764,126.881L92.98,20.927L251.628,125.038L95.888,-3.028L253.707,123.351L125.409,-5.387L255.979,121.838L134.02,-28.422L258.423,120.513L163.541,-26.063L261.015,119.388L177.524,-47.292L263.73,118.476L205.911,-40.304L266.543,117.783L224.729,-58.912L269.426,117.318L250.89,-47.565L272.351,117.084L273.821,-62.835Z" style="fill:white;fill-opacity:0.44;"/>
    </g>
    <path d="M57.906,97.037L57.906,107.003L56.929,107.003C55.712,102.175 53.691,99.155 48.484,99.155L45.741,99.155L45.741,127.558C45.741,130.768 46.099,132.853 49.76,132.853L50.982,132.853L50.982,133.857L31.703,133.857L31.703,132.853L32.925,132.853C36.583,132.853 36.917,130.723 36.917,127.558L36.917,99.155L34.256,99.155C29.307,99.155 26.602,102.198 25.865,107.003L24.833,107.003L24.833,97.037L57.906,97.037ZM72.162,97.037L72.162,111.727C73.294,110.536 74.544,109.4 75.99,108.618C77.083,108.028 78.366,107.829 79.602,107.709C85.693,107.113 86.499,114.295 86.499,118.434L86.499,128.345C86.499,131.147 86.342,132.547 89.241,132.88L89.241,133.857L76.371,133.857L76.371,132.88C79.036,132.507 78.896,130.655 78.896,128.345L78.896,117.022C78.896,115.703 78.918,114.364 78.651,113.071C77.77,108.799 72.97,113.474 72.162,114.741L72.162,128.345C72.162,130.825 72.142,132.535 74.687,132.88L74.687,133.857L61.816,133.857L61.816,132.88C64.766,132.58 64.559,130.957 64.559,128.345L64.559,102.549C64.559,99.707 64.716,98.416 61.816,98.042L61.816,97.037L72.162,97.037ZM98.826,96.168C102.494,96.168 104.421,100.741 101.8,103.337C101.405,103.727 100.953,104.042 100.439,104.253C99.923,104.465 99.382,104.559 98.826,104.559C98.272,104.559 97.731,104.465 97.218,104.253C96.705,104.042 96.258,103.728 95.867,103.337C93.283,100.753 95.167,96.168 98.826,96.168ZM102.628,108.469L102.628,128.59C102.628,131.086 102.957,132.716 105.696,132.88L105.696,133.857L91.984,133.857L91.984,132.88C94.724,132.791 95.025,130.947 95.025,128.59L95.025,113.764C95.025,111.291 94.706,109.639 91.984,109.474L91.984,108.469L102.628,108.469ZM124.215,107.763L124.622,116.425L123.699,116.425C122.629,113.934 121.174,111.168 118.489,110.098C116.97,109.493 114.993,109.624 114.229,111.296C112.949,114.099 118.727,116.896 119.436,117.443C121.402,118.962 123.252,119.998 124.69,122.032C126.415,124.471 126.262,127.86 124.894,130.409C123.056,133.83 119.205,135.197 115.519,134.332C113.666,133.898 111.263,132.066 110.177,134.536L109.28,134.536L108.846,125.413L109.769,125.413C110.717,128.193 112.409,130.894 115.197,132.133C116.83,132.859 119.106,132.773 119.908,130.894C121.166,127.943 117.302,126.031 115.662,124.707C111.717,121.522 106.775,118.436 108.999,112.6C110.464,108.755 114.489,106.976 118.397,107.96C120.642,108.525 121.7,110.084 123.292,107.763L124.215,107.763ZM149.82,96.168C153.488,96.168 155.416,100.741 152.794,103.337C152.399,103.727 151.947,104.042 151.433,104.253C150.917,104.465 150.376,104.559 149.82,104.559C149.266,104.559 148.726,104.465 148.212,104.253C147.699,104.042 147.252,103.728 146.861,103.337C144.277,100.753 146.161,96.168 149.82,96.168ZM153.622,108.469L153.622,128.59C153.622,131.086 153.951,132.716 156.69,132.88L156.69,133.857L142.978,133.857L142.978,132.88C145.718,132.791 146.019,130.947 146.019,128.59L146.019,113.764C146.019,111.291 145.7,109.639 142.978,109.474L142.978,108.469L153.622,108.469ZM175.209,107.763L175.616,116.425L174.693,116.425C173.623,113.934 172.168,111.168 169.483,110.098C167.964,109.493 165.987,109.624 165.223,111.296C163.943,114.099 169.721,116.896 170.43,117.443C172.396,118.962 174.246,119.998 175.684,122.032C177.409,124.471 177.256,127.86 175.888,130.409C174.05,133.83 170.199,135.197 166.513,134.332C164.66,133.898 162.258,132.066 161.171,134.536L160.275,134.536L159.84,125.413L160.763,125.413C161.711,128.193 163.403,130.894 166.191,132.133C167.825,132.859 170.1,132.773 170.902,130.894C172.16,127.943 168.296,126.031 166.656,124.707C162.711,121.522 157.769,118.436 159.993,112.6C161.458,108.755 165.483,106.976 169.391,107.96C171.636,108.525 172.694,110.084 174.286,107.763L175.209,107.763ZM208.716,130.11C206.637,131.946 203.464,134.29 200.38,134.21C196.308,134.106 194.233,130.055 195.954,126.455C198.036,122.098 204.905,119.561 208.716,117.81L208.716,115.257C208.716,114.044 208.756,112.793 208.404,111.632C207.732,109.415 203.853,109.271 202.362,110.56C200.741,111.961 202.596,112.961 203.191,114.259C203.721,115.419 203.385,116.779 202.457,117.633C199.398,120.45 194.654,117.019 196.232,113.211C197.195,110.89 199.443,109.461 201.711,108.659C206.002,107.141 211.773,107.009 214.917,110.841C216.623,112.921 216.292,114.981 216.292,117.81L216.292,127.666C216.292,128.38 216.276,131.807 218.172,130.483C218.458,130.284 218.693,130.012 218.899,129.73L219.713,130.382C218.643,131.965 217.26,133.457 215.352,133.983C212.241,134.841 209.159,133.477 208.716,130.11ZM208.716,128.128L208.716,119.629C206.608,120.866 203.919,122.757 203.034,125.229C202.302,127.275 203.253,129.535 205.566,129.649C206.696,129.704 207.972,128.759 208.716,128.128ZM45.416,185.286L46.257,185.938C42.627,192.759 33.224,195.248 27.983,188.761C24.867,184.905 24.215,179.359 25.634,174.682C26.333,172.381 27.715,169.992 29.539,168.354C34.107,164.255 44.79,164.492 45.497,172.089C45.791,175.25 41.417,176.616 39.455,174.424C37.872,172.656 38.735,170.108 37.378,168.261C35.241,165.351 32.881,170.458 32.626,171.614C31.678,175.92 32.36,181.332 34.765,185.086C36.415,187.661 39.629,189.303 42.592,187.648C43.663,187.05 44.576,186.181 45.416,185.286ZM61.355,165.681C74.421,165.681 77.894,186.082 66.643,191.49C64.994,192.283 63.255,192.582 61.436,192.59C59.711,192.598 57.945,192.305 56.365,191.585C44.985,186.403 48.412,165.681 61.355,165.681ZM61.463,167.609C58.716,167.609 57.941,170.573 57.784,172.782C57.419,177.901 57.264,181.839 57.852,186.779C58.077,188.671 59.264,190.643 61.355,190.717C64.979,190.845 65.088,185.916 65.21,183.562C65.324,181.387 65.345,179.208 65.346,177.031C65.348,174.433 65.796,167.609 61.463,167.609ZM87.721,166.441L87.721,169.781C91.783,165.349 99.525,163.486 102.139,170.297C105.538,166.474 114.52,162.447 116.843,169.958C117.43,171.857 117.454,173.903 117.454,175.891L117.454,186.291C117.454,189.159 117.272,190.475 120.196,190.852L120.196,191.83L107.081,191.83L107.081,190.852C109.903,190.605 109.851,188.56 109.851,186.291L109.851,175.375C109.851,172.544 109.439,166.908 104.99,170.094C104.035,170.777 103.256,171.703 102.574,172.66L102.574,186.291C102.574,188.905 102.698,190.684 105.425,190.852L105.425,191.83L92.282,191.83L92.282,190.852C94.996,190.713 94.971,188.439 94.971,186.291L94.971,175.375C94.971,173.933 94.993,172.469 94.699,171.057C93.747,166.481 88.59,171.429 87.721,172.66L87.721,186.291C87.721,188.812 87.607,190.576 90.463,190.852L90.463,191.83L77.375,191.83L77.375,190.852C80.337,190.551 80.118,188.913 80.118,186.291L80.118,171.954C80.118,169.111 80.275,167.82 77.375,167.446L77.375,166.441L87.721,166.441ZM133.338,189.25L133.338,198.7C133.338,201.797 134.026,202.718 137.167,202.718L137.167,203.723L122.694,203.723L122.694,202.718C125.65,202.623 125.735,201.122 125.735,198.537L125.735,171.736C125.735,168.911 125.637,167.624 122.694,167.446L122.694,166.441L133.338,166.441L133.338,169.781C136.868,164.594 143.777,164.372 147.482,169.547C151.207,174.751 151.204,183.708 147.397,188.87C143.868,193.656 137.189,193.661 133.338,189.25ZM133.338,186.508C134.959,188.806 138.557,191.582 140.751,188.273C141.033,187.848 141.214,187.36 141.369,186.874C142.067,184.691 142.169,181.552 142.163,179.584C142.157,177.472 142.056,174.335 141.293,172.064C141.121,171.553 140.926,171.036 140.615,170.596C140.288,170.132 139.899,169.679 139.407,169.394C136.635,167.791 134.309,170.777 133.338,172.958L133.338,186.508ZM164.375,155.01L164.375,186.562C164.375,189.413 164.479,190.675 167.443,190.852L167.443,191.83L153.731,191.83L153.731,190.852C156.406,190.766 156.772,189.251 156.772,186.562L156.772,160.278C156.772,157.466 156.66,156.192 153.731,156.014L153.731,155.01L164.375,155.01ZM191.392,178.226L177.463,178.226C177.611,181.297 178.273,183.765 180.151,186.209C180.693,186.914 181.419,187.502 182.215,187.899C185.809,189.697 188.648,187.111 190.469,184.281L191.392,184.879C190.301,187.104 188.885,189.352 186.831,190.839C182.571,193.921 175.236,192.978 172.494,188.246C170.404,184.639 169.755,180.646 170.373,176.542C171.231,170.842 175.591,165.736 181.644,165.681C182.62,165.672 184.383,165.942 185.246,166.472C186.353,167.152 187.397,167.948 188.338,168.844C190.648,171.047 191.294,175.422 191.392,178.226ZM184.713,176.407C184.713,174.732 184.689,172.163 184.237,170.406C183.985,169.426 183.5,168.613 182.758,167.935C181.819,167.077 180.23,167.394 179.409,168.225C177.643,170.014 177.327,173.094 177.327,175.456L177.327,176.407L184.713,176.407ZM209.585,176.271L213.984,184.634C215.073,186.722 216.629,190.726 219.605,190.852L219.605,191.83L205.458,191.83L205.458,190.852C208.177,190.629 208.324,189.634 207.033,187.214L204.833,183.086L202.96,185.829C202.437,186.597 199.898,189.813 202.267,190.649C202.788,190.832 203.358,190.852 203.91,190.852L203.91,191.83L193.972,191.83L193.972,190.852C197.765,190.852 199.942,187.262 201.819,184.498L203.91,181.403L199.538,173.311C198.363,171.139 196.901,167.69 193.972,167.446L193.972,166.441L208.037,166.441L208.037,167.446L207.304,167.473L205.892,167.962C205.095,168.66 206.342,170.464 206.571,170.895L208.553,174.587L209.585,173.121C210.88,171.341 213.488,167.88 209.585,167.446L209.585,166.441L218.573,166.441L218.573,167.446C215.601,167.544 213.732,169.902 212.246,172.198L209.585,176.271ZM242.386,154.141C246.054,154.141 247.982,158.714 245.36,161.309C244.965,161.7 244.513,162.014 243.999,162.226C243.483,162.438 242.942,162.531 242.386,162.531C241.832,162.531 241.292,162.438 240.778,162.226C240.265,162.014 239.818,161.701 239.427,161.309C236.843,158.726 238.727,154.141 242.386,154.141ZM246.188,166.441L246.188,186.562C246.188,189.059 246.517,190.689 249.256,190.852L249.256,191.83L235.544,191.83L235.544,190.852C238.284,190.764 238.585,188.919 238.585,186.562L238.585,171.736C238.585,169.263 238.266,167.611 235.544,167.446L235.544,166.441L246.188,166.441ZM262.263,166.441L262.263,169.781C266.325,165.349 274.068,163.486 276.681,170.297C280.08,166.474 289.063,162.447 291.385,169.958C291.972,171.857 291.996,173.903 291.996,175.891L291.996,186.291C291.996,189.159 291.814,190.475 294.738,190.852L294.738,191.83L281.623,191.83L281.623,190.852C284.445,190.605 284.393,188.56 284.393,186.291L284.393,175.375C284.393,172.544 283.981,166.908 279.532,170.094C278.577,170.777 277.799,171.703 277.116,172.66L277.116,186.291C277.116,188.905 277.24,190.684 279.967,190.852L279.967,191.83L266.825,191.83L266.825,190.852C269.538,190.713 269.513,188.439 269.513,186.291L269.513,175.375C269.513,173.933 269.535,172.469 269.241,171.057C268.289,166.481 263.132,171.429 262.263,172.66L262.263,186.291C262.263,188.812 262.149,190.576 265.005,190.852L265.005,191.83L251.917,191.83L251.917,190.852C254.879,190.551 254.66,188.913 254.66,186.291L254.66,171.954C254.66,169.111 254.817,167.82 251.917,167.446L251.917,166.441L262.263,166.441ZM312.062,188.083C309.983,189.919 306.81,192.262 303.726,192.183C299.654,192.078 297.579,188.028 299.3,184.427C301.382,180.07 308.251,177.534 312.062,175.782L312.062,173.23C312.062,172.017 312.102,170.765 311.75,169.605C311.078,167.387 307.199,167.244 305.708,168.532C304.087,169.933 305.942,170.933 306.536,172.232C307.067,173.392 306.731,174.752 305.803,175.606C302.744,178.423 298,174.992 299.578,171.183C300.54,168.862 302.789,167.434 305.057,166.631C309.348,165.114 315.119,164.981 318.263,168.814C319.969,170.893 319.638,172.953 319.638,175.782L319.638,185.639C319.638,186.353 319.622,189.78 321.518,188.456C321.804,188.256 322.039,187.984 322.245,187.703L323.059,188.354C321.989,189.938 320.605,191.429 318.698,191.955C315.587,192.813 312.505,191.45 312.062,188.083ZM312.062,186.1L312.062,177.601C309.954,178.838 307.265,180.73 306.38,183.202C305.648,185.248 306.599,187.507 308.912,187.621C310.042,187.677 311.318,186.732 312.062,186.1ZM342.148,166.74L350.701,166.74L350.701,169.727L345.841,169.727C346.558,170.444 347.267,171.221 347.687,172.144C350.786,178.947 343.895,183.446 338.129,184.173C336.387,184.392 334.365,183.381 332.821,184.838C330.554,186.976 332.979,188.979 335.17,188.979L339.867,188.924C341.787,188.924 345.745,189.013 347.715,190.173C352.084,192.747 351.413,198.605 347.735,201.357C346.087,202.59 343.835,203.177 341.883,203.499C336.955,204.312 331.633,203.993 327.295,201.32C325.77,200.38 325.724,197.731 327.01,196.595C327.976,195.742 329.253,195.257 330.499,194.925C329.493,194.43 328.513,193.754 327.852,192.848C324.811,188.685 329.592,184.795 332.97,183.385C326.631,181.067 323.216,173.557 329.114,168.41C332.712,165.27 337.843,165.044 342.148,166.74ZM337.451,167.365C333.592,167.365 333.704,173.234 333.703,175.538C333.703,176.678 333.824,177.818 333.972,178.949C334.19,180.633 335.403,182.595 337.315,182.598C340.977,182.602 341.127,177.731 341.116,175.293C341.11,173.927 340.979,172.562 340.811,171.207C340.586,169.395 339.54,167.365 337.451,167.365ZM335.849,195.577C334.029,195.577 330.621,195.617 330.635,198.319C330.637,198.779 330.788,199.252 331.036,199.64C331.339,200.115 331.791,200.486 332.237,200.831C333.711,201.97 336.797,201.952 338.265,201.958C340.451,201.967 343.288,201.784 345.143,200.4C346.606,199.308 346.845,197.217 345.03,196.303C342.65,195.106 338.118,195.577 335.849,195.577ZM375.167,178.226L361.237,178.226C361.386,181.297 362.048,183.765 363.925,186.209C364.467,186.914 365.193,187.502 365.989,187.899C369.583,189.697 372.422,187.111 374.243,184.281L375.167,184.879C374.075,187.104 372.66,189.352 370.605,190.839C366.346,193.921 359.01,192.978 356.268,188.246C354.178,184.639 353.53,180.646 354.147,176.542C355.005,170.842 359.365,165.736 365.419,165.681C366.394,165.672 368.157,165.942 369.02,166.472C370.127,167.152 371.172,167.948 372.112,168.844C374.422,171.047 375.069,175.422 375.167,178.226ZM368.487,176.407C368.487,174.732 368.464,172.163 368.012,170.406C367.76,169.426 367.274,168.613 366.532,167.935C365.593,167.077 364.004,167.394 363.184,168.225C361.417,170.014 361.101,173.094 361.101,175.456L361.101,176.407L368.487,176.407Z" style="fill:white;"/>
    <defs>
        <linearGradient id="_Linear1" x1="0" y1="0" x2="1" y2="0" gradientUnits="userSpaceOnUse" gradientTransform="matrix(400,300,-300,400,0,0)"><stop offset="0" style="stop-color:rgb(158,255,253);stop-opacity:1"/><stop offset="1" style="stop-color:rgb(203,99,226);stop-opacity:1"/></linearGradient>
    </defs>
</svg>
