<?xml version="1.0" encoding="UTF-8" standalone="no"?>
<svg version="1.1" xmlns="http://www.w3.org/2000/svg" xmlns:xlink="http://www.w3.org/1999/xlink" width="312.616" height="315.077">
	<path id="dp_path001" transform="matrix(1,0,0,1,1071.35,-448.244)" fill="white" fill-rule="evenodd" d="M -864.849,604.127 L -855.899,604.127 C -837.032,604.127 -836.82,638.401 -855.899,638.401 L -864.849,638.401 Z M -1034.95,547.807 L -1034.95,634.657 C -1034.95,675.721 -1004.14,696.353 -973.34,696.353 L -925.893,696.353 L -925.893,638.816 L -970.605,638.816 C -975.201,638.816 -979.796,635.101 -979.796,627.677 L -979.796,547.559 Z M -919.764,547.075 L -919.764,696.093 L -856.961,696.093 C -761.127,696.093 -761.127,547.075 -856.961,547.075 Z M -1066.15,512.407 C -1066.15,481.023 -1040.71,455.58 -1009.32,455.58 L -820.708,455.58 C -789.324,455.58 -763.881,481.023 -763.881,512.407 L -763.881,701.023 C -763.881,732.407 -789.324,757.849 -820.708,757.849 L -1009.32,757.849 C -1040.71,757.849 -1066.15,732.407 -1066.15,701.023 Z "/>
</svg>