<?xml version="1.0" encoding="UTF-8" standalone="no"?>
<!DOCTYPE svg PUBLIC "-//W3C//DTD SVG 1.1//EN" "http://www.w3.org/Graphics/SVG/1.1/DTD/svg11.dtd">
<svg width="100%" height="100%" viewBox="0 0 313 316" version="1.1" xmlns="http://www.w3.org/2000/svg" xmlns:xlink="http://www.w3.org/1999/xlink" xml:space="preserve" xmlns:serif="http://www.serif.com/" style="fill-rule:evenodd;clip-rule:evenodd;stroke-linejoin:round;stroke-miterlimit:2;">
    <path id="dp_path001" d="M5.257,255.344C5.219,254.494 5.2,253.639 5.2,252.779L5.2,64.163C5.2,32.779 30.64,7.336 62.03,7.336L250.642,7.336C281.125,7.336 306.004,31.34 307.406,61.474L94.846,61.474L68.383,118.711L84.62,118.711L84.62,168.598L85.012,168.598C92.265,158.078 102.197,153.309 113.86,153.113C140.42,153.113 155.514,174.903 155.514,202.999C155.514,222.242 149.045,246.646 128.79,255.434L193.182,255.434C176.03,248.378 166.295,230.801 166.295,208.717C166.295,177.746 181.192,153.113 214.254,153.113C240.455,153.113 250.387,172.224 251.726,189.605L235.522,189.605C233.431,176.243 225.95,168.206 211.804,168.206C190.993,168.206 184.296,188.069 184.296,205.842C184.296,223.059 188.51,244.261 211.64,244.261C222.911,244.261 232.647,235.833 235.522,220.576L251.759,220.576C251.759,220.641 251.726,220.706 251.726,220.772L307.469,100.185L307.469,252.779C307.469,284.163 282.026,309.605 250.642,309.605L62.03,309.605C31.541,309.605 6.665,285.602 5.263,255.467L67.828,255.467L67.828,119.985L5.257,255.344ZM235.718,255.467L238.822,248.77C235.979,251.449 232.614,253.768 228.629,255.467L235.718,255.467ZM83.673,255.467L96.349,255.467C89.782,252.135 86.221,247.006 84.065,243.543L83.673,243.543L83.673,255.467ZM111.213,244.327C129.574,244.327 138.166,227.698 138.166,205.711C138.166,192.904 136.827,168.239 110.854,168.239C86.58,168.239 83.902,194.407 83.902,210.677C83.869,237.237 100.498,244.327 111.213,244.327Z" style="fill:white;"/>
</svg>
