<?xml version="1.0" encoding="UTF-8" standalone="no"?>
<!DOCTYPE svg PUBLIC "-//W3C//DTD SVG 1.1//EN" "http://www.w3.org/Graphics/SVG/1.1/DTD/svg11.dtd">
<svg width="100%" height="100%" viewBox="0 0 313 316" version="1.1" xmlns="http://www.w3.org/2000/svg" xmlns:xlink="http://www.w3.org/1999/xlink" xml:space="preserve" xmlns:serif="http://www.serif.com/" style="fill-rule:evenodd;clip-rule:evenodd;stroke-linejoin:round;stroke-miterlimit:2;">
    <path id="dp_path001" d="M5.2,64.163C5.2,32.779 30.64,7.336 62.03,7.336L250.642,7.336C282.026,7.336 307.469,32.779 307.469,64.163L307.469,252.779C307.469,284.163 282.026,309.605 250.642,309.605L62.03,309.605C30.64,309.605 5.2,284.163 5.2,252.779L5.2,64.163ZM257.826,180.157C262.738,154.894 262.333,118.507 262.333,118.507C262.333,69.188 230.02,54.732 230.02,54.732C213.728,47.249 185.752,44.102 156.687,43.865L155.973,43.865C126.907,44.102 98.949,47.249 82.656,54.732C82.656,54.732 50.342,69.188 50.342,118.507C50.342,129.8 50.122,143.303 50.48,157.623C51.653,205.854 59.322,253.388 103.915,265.191C124.476,270.633 142.129,271.772 156.346,270.991C182.129,269.561 196.602,261.789 196.602,261.789L195.752,243.083C195.752,243.083 177.327,248.893 156.635,248.185C136.134,247.482 114.492,245.974 111.176,220.804C110.87,218.593 110.717,216.229 110.717,213.746C110.717,213.746 130.842,218.665 156.346,219.834C171.941,220.549 186.566,218.92 201.421,217.147C229.906,213.746 254.709,196.195 257.826,180.157ZM224.218,122.333L224.218,182.049L200.559,182.049L200.559,124.088C200.559,111.87 195.419,105.668 185.136,105.668C173.766,105.668 168.068,113.025 168.068,127.571L168.068,159.297L144.549,159.297L144.549,127.571C144.549,113.025 138.85,105.668 127.481,105.668C117.198,105.668 112.057,111.87 112.057,124.088L112.057,182.049L88.398,182.049L88.398,122.333C88.398,110.128 91.506,100.429 97.748,93.254C104.185,86.079 112.614,82.4 123.078,82.4C135.185,82.4 144.353,87.054 150.415,96.361L156.308,106.24L162.202,96.361C168.263,87.054 177.431,82.4 189.539,82.4C200.002,82.4 208.432,86.079 214.87,93.254C221.11,100.429 224.218,110.128 224.218,122.333Z" />
</svg>
