<?xml version="1.0" encoding="UTF-8" standalone="no"?>
<!DOCTYPE svg PUBLIC "-//W3C//DTD SVG 1.1//EN" "http://www.w3.org/Graphics/SVG/1.1/DTD/svg11.dtd">
<svg width="100%" height="100%" viewBox="0 0 81 52" version="1.1" xmlns="http://www.w3.org/2000/svg" xmlns:xlink="http://www.w3.org/1999/xlink" xml:space="preserve" xmlns:serif="http://www.serif.com/" style="fill-rule:evenodd;clip-rule:evenodd;stroke-linejoin:round;">
    <g transform="matrix(1,0,0,1,-337.007,-201.567)">
        <g id="dp_dp001">
            <path id="dp_path002" d="M357.499,232.571L377.484,252.512L377.489,251.407L377.483,232.6L357.499,232.571Z" style="fill:rgb(68,68,68);stroke:rgb(68,68,68);stroke-width:1.25px;"/>
            <path id="dp_path003" d="M357.496,232.497L357.496,232.447L377.483,212.584L377.483,232.599L357.496,232.497Z" style="fill:none;stroke:rgb(68,68,68);stroke-width:1.25px;"/>
            <path id="dp_path004" d="M377.483,212.683L397.424,232.571L377.483,252.513L377.483,212.683Z" style="fill:none;stroke:rgb(68,68,68);stroke-width:1.25px;"/>
            <path id="dp_path005" d="M357.496,232.571L357.496,202.44L337.511,202.44L337.511,212.584L357.496,232.571Z" style="fill:none;stroke:rgb(68,68,68);stroke-width:1.25px;"/>
            <path id="dp_path006" d="M397.521,232.524L397.521,202.44L417.508,202.44L417.507,212.435L397.521,232.524Z" style="fill:none;stroke:rgb(68,68,68);stroke-width:1.25px;"/>
            <path id="dp_path007" d="M357.496,232.509L357.499,212.584L367.489,222.512L357.496,232.509Z" style="fill:none;stroke:rgb(68,68,68);stroke-width:1.25px;"/>
            <path id="dp_path008" d="M397.525,232.525L397.467,212.72L387.475,222.576L397.525,232.525Z" style="fill:none;stroke:rgb(68,68,68);stroke-width:1.25px;"/>
            <path id="dp_path009" d="M377.483,252.556L397.468,232.569L377.483,212.583L357.496,232.569L377.483,252.556Z" style="fill:none;stroke:rgb(68,68,68);stroke-width:1.25px;"/>
            <path id="dp_path010" d="M377.483,212.583L377.483,252.556" style="fill:none;stroke:rgb(68,68,68);stroke-width:1.25px;"/>
            <path id="dp_path011" d="M377.483,232.569C370.82,232.549 357.496,232.509 357.496,232.509" style="fill:none;stroke:rgb(68,68,68);stroke-width:1.25px;"/>
            <path id="dp_path012" d="M357.496,232.571L357.499,202.44L337.509,202.44L337.511,212.584L357.496,232.571Z" style="fill:none;stroke:rgb(68,68,68);stroke-width:1.25px;"/>
            <path id="dp_path013" d="M367.489,222.511C364.157,219.2 357.496,212.583 357.496,212.583" style="fill:none;stroke:rgb(68,68,68);stroke-width:1.25px;"/>
            <path id="dp_path014" d="M397.521,232.521L397.521,202.44L417.455,202.44L417.504,212.535L397.521,232.521Z" style="fill:none;stroke:rgb(68,68,68);stroke-width:1.25px;"/>
            <path id="dp_path015" d="M387.471,222.592C390.821,219.239 397.52,212.533 397.52,212.533" style="fill:none;stroke:rgb(68,68,68);stroke-width:1.25px;"/>
        </g>
    </g>
</svg>
